<?xml version="1.0" encoding="us-ascii" standalone="no"?><svg xmlns="http://www.w3.org/2000/svg" xmlns:xlink="http://www.w3.org/1999/xlink" contentStyleType="text/css" height="2520px" preserveAspectRatio="none" style="width:2174px;height:2520px;background:#FFFFFF;" version="1.1" viewBox="0 0 2174 2520" width="2174px" zoomAndPan="magnify"><defs/><g><!--cluster UPDATE_PROTOCOL_PARAMS--><g id="cluster_UPDATE_PROTOCOL_PARAMS"><rect fill="#ADD8E6" height="423" rx="2.5" ry="2.5" style="stroke:#000000;stroke-width:1.0;" width="1103.5" x="297" y="726.72"/><text fill="#000000" font-family="sans-serif" font-size="14" font-weight="bold" lengthAdjust="spacing" textLength="254" x="721.75" y="742.2552">Updating Core Protocol Parameters</text></g><!--entity updateCollateral--><g id="elem_updateCollateral"><rect fill="#F1F1F1" height="52.9766" rx="2.5" ry="2.5" style="stroke:#181818;stroke-width:0.5;" width="257" x="338" y="1073.23"/><text fill="#000000" font-family="sans-serif" font-size="14" font-style="italic" lengthAdjust="spacing" textLength="128" x="402.5" y="1096.7652">&#171;updateCollateral&#187;</text><text fill="#000000" font-family="sans-serif" font-size="14" lengthAdjust="spacing" textLength="237" x="348" y="1113.2534">Update Collateral contract address</text></g><!--entity updateIncentivizer--><g id="elem_updateIncentivizer"><rect fill="#F1F1F1" height="52.9766" rx="2.5" ry="2.5" style="stroke:#181818;stroke-width:0.5;" width="270" x="331.5" y="980.23"/><text fill="#000000" font-family="sans-serif" font-size="14" font-style="italic" lengthAdjust="spacing" textLength="141" x="396" y="1003.7652">&#171;updateIncentivizer&#187;</text><text fill="#000000" font-family="sans-serif" font-size="14" lengthAdjust="spacing" textLength="250" x="341.5" y="1020.2534">Update Incentivizer contract address</text></g><!--entity updateProductBeacon--><g id="elem_updateProductBeacon"><rect fill="#F1F1F1" height="52.9766" rx="2.5" ry="2.5" style="stroke:#181818;stroke-width:0.5;" width="291" x="321" y="887.23"/><text fill="#000000" font-family="sans-serif" font-size="14" font-style="italic" lengthAdjust="spacing" textLength="164" x="384.5" y="910.7652">&#171;updateProductBeacon&#187;</text><text fill="#000000" font-family="sans-serif" font-size="14" lengthAdjust="spacing" textLength="271" x="331" y="927.2534">Update Product Implementation Beacon</text></g><!--entity updateMultiInvoker--><g id="elem_updateMultiInvoker"><rect fill="#F1F1F1" height="52.9766" rx="2.5" ry="2.5" style="stroke:#181818;stroke-width:0.5;" width="220" x="356.5" y="794.23"/><text fill="#000000" font-family="sans-serif" font-size="14" font-style="italic" lengthAdjust="spacing" textLength="147" x="393" y="817.7652">&#171;updateMultiInvoker&#187;</text><text fill="#000000" font-family="sans-serif" font-size="14" lengthAdjust="spacing" textLength="200" x="366.5" y="834.2534">Update Multi Invoker address</text></g><!--entity updateProtocolFee--><g id="elem_updateProtocolFee"><rect fill="#F1F1F1" height="52.9766" rx="2.5" ry="2.5" style="stroke:#181818;stroke-width:0.5;" width="257" x="694" y="1073.23"/><text fill="#000000" font-family="sans-serif" font-size="14" font-style="italic" lengthAdjust="spacing" textLength="143" x="751" y="1096.7652">&#171;updateProtocolFee&#187;</text><text fill="#000000" font-family="sans-serif" font-size="14" lengthAdjust="spacing" textLength="237" x="704" y="1113.2534">Update Protocol - Product fee split</text></g><!--entity updateMinFundingRate--><g id="elem_updateMinFundingRate"><rect fill="#F1F1F1" height="52.9766" rx="2.5" ry="2.5" style="stroke:#181818;stroke-width:0.5;" width="230" x="707.5" y="980.23"/><text fill="#000000" font-family="sans-serif" font-size="14" font-style="italic" lengthAdjust="spacing" textLength="174" x="735.5" y="1003.7652">&#171;updateMinFundingRate&#187;</text><text fill="#000000" font-family="sans-serif" font-size="14" lengthAdjust="spacing" textLength="210" x="717.5" y="1020.2534">Update minimum Funding rate</text></g><!--entity updateLiquidationFee--><g id="elem_updateLiquidationFee"><rect fill="#F1F1F1" height="52.9766" rx="2.5" ry="2.5" style="stroke:#181818;stroke-width:0.5;" width="183" x="731" y="887.23"/><text fill="#000000" font-family="sans-serif" font-size="14" font-style="italic" lengthAdjust="spacing" textLength="163" x="741" y="910.7652">&#171;updateLiquidationFee&#187;</text><text fill="#000000" font-family="sans-serif" font-size="14" lengthAdjust="spacing" textLength="152" x="746.5" y="927.2534">Update liquidation fee</text></g><!--entity updateIncentivizationFee--><g id="elem_updateIncentivizationFee"><rect fill="#F1F1F1" height="52.9766" rx="2.5" ry="2.5" style="stroke:#181818;stroke-width:0.5;" width="206" x="719.5" y="794.23"/><text fill="#000000" font-family="sans-serif" font-size="14" font-style="italic" lengthAdjust="spacing" textLength="186" x="729.5" y="817.7652">&#171;updateIncentivizationFee&#187;</text><text fill="#000000" font-family="sans-serif" font-size="14" lengthAdjust="spacing" textLength="178" x="733.5" y="834.2534">Update incentivization fee</text></g><!--entity updateMinCollateral--><g id="elem_updateMinCollateral"><rect fill="#F1F1F1" height="52.9766" rx="2.5" ry="2.5" style="stroke:#181818;stroke-width:0.5;" width="239" x="1075.5" y="1073.23"/><text fill="#000000" font-family="sans-serif" font-size="14" font-style="italic" lengthAdjust="spacing" textLength="153" x="1118.5" y="1096.7652">&#171;updateMinCollateral&#187;</text><text fill="#000000" font-family="sans-serif" font-size="14" lengthAdjust="spacing" textLength="219" x="1085.5" y="1113.2534">Update minimum user collateral</text></g><!--entity updateProgramsPerProduct--><g id="elem_updateProgramsPerProduct"><rect fill="#F1F1F1" height="52.9766" rx="2.5" ry="2.5" style="stroke:#181818;stroke-width:0.5;" width="363" x="1013.5" y="980.23"/><text fill="#000000" font-family="sans-serif" font-size="14" font-style="italic" lengthAdjust="spacing" textLength="203" x="1093.5" y="1003.7652">&#171;updateProgramsPerProduct&#187;</text><text fill="#000000" font-family="sans-serif" font-size="14" lengthAdjust="spacing" textLength="343" x="1023.5" y="1020.2534">Update max incentivization programs per product</text></g><!--entity updatePauser--><g id="elem_updatePauser"><rect fill="#F1F1F1" height="52.9766" rx="2.5" ry="2.5" style="stroke:#181818;stroke-width:0.5;" width="177" x="1106.5" y="887.23"/><text fill="#000000" font-family="sans-serif" font-size="14" font-style="italic" lengthAdjust="spacing" textLength="108" x="1141" y="910.7652">&#171;updatePauser&#187;</text><text fill="#000000" font-family="sans-serif" font-size="14" lengthAdjust="spacing" textLength="157" x="1116.5" y="927.2534">Update Pauser address</text></g><!--entity Liquidators--><g id="elem_Liquidators"><ellipse cx="822.5" cy="1327.98" fill="#F1F1F1" rx="8" ry="8" style="stroke:#181818;stroke-width:0.5;"/><path d="M822.5,1335.98 L822.5,1362.98 M809.5,1343.98 L835.5,1343.98 M822.5,1362.98 L809.5,1377.98 M822.5,1362.98 L835.5,1377.98 " fill="none" style="stroke:#181818;stroke-width:0.5;"/><text fill="#000000" font-family="sans-serif" font-size="14" lengthAdjust="spacing" textLength="77" x="784" y="1393.0152">Liquidators</text></g><!--entity Makers--><g id="elem_Makers"><ellipse cx="466.5" cy="1655.98" fill="#F1F1F1" rx="8" ry="8" style="stroke:#181818;stroke-width:0.5;"/><path d="M466.5,1663.98 L466.5,1690.98 M453.5,1671.98 L479.5,1671.98 M466.5,1690.98 L453.5,1705.98 M466.5,1690.98 L479.5,1705.98 " fill="none" style="stroke:#181818;stroke-width:0.5;"/><text fill="#000000" font-family="sans-serif" font-size="14" lengthAdjust="spacing" textLength="49" x="442" y="1721.0152">Makers</text></g><!--entity Takers--><g id="elem_Takers"><ellipse cx="1516" cy="2137.98" fill="#F1F1F1" rx="8" ry="8" style="stroke:#181818;stroke-width:0.5;"/><path d="M1516,2145.98 L1516,2172.98 M1503,2153.98 L1529,2153.98 M1516,2172.98 L1503,2187.98 M1516,2172.98 L1529,2187.98 " fill="none" style="stroke:#181818;stroke-width:0.5;"/><text fill="#000000" font-family="sans-serif" font-size="14" lengthAdjust="spacing" textLength="46" x="1493" y="2203.0152">Takers</text></g><!--entity MarketOperator--><g id="elem_MarketOperator"><ellipse cx="822.5" cy="2259.98" fill="#F1F1F1" rx="8" ry="8" style="stroke:#181818;stroke-width:0.5;"/><path d="M822.5,2267.98 L822.5,2294.98 M809.5,2275.98 L835.5,2275.98 M822.5,2294.98 L809.5,2309.98 M822.5,2294.98 L835.5,2309.98 " fill="none" style="stroke:#181818;stroke-width:0.5;"/><text fill="#000000" font-family="sans-serif" font-size="14" lengthAdjust="spacing" textLength="113" x="766" y="2325.0152">Market Operator</text></g><!--entity Admin--><g id="elem_Admin"><ellipse cx="123" cy="733.98" fill="#F1F1F1" rx="8" ry="8" style="stroke:#181818;stroke-width:0.5;"/><path d="M123,741.98 L123,768.98 M110,749.98 L136,749.98 M123,768.98 L110,783.98 M123,768.98 L136,783.98 " fill="none" style="stroke:#181818;stroke-width:0.5;"/><text fill="#000000" font-family="sans-serif" font-size="14" lengthAdjust="spacing" textLength="45" x="100.5" y="799.0152">Admin</text></g><!--entity Pauser--><g id="elem_Pauser"><ellipse cx="123" cy="617.98" fill="#F1F1F1" rx="8" ry="8" style="stroke:#181818;stroke-width:0.5;"/><path d="M123,625.98 L123,652.98 M110,633.98 L136,633.98 M123,652.98 L110,667.98 M123,652.98 L136,667.98 " fill="none" style="stroke:#181818;stroke-width:0.5;"/><text fill="#000000" font-family="sans-serif" font-size="14" lengthAdjust="spacing" textLength="46" x="100" y="683.0152">Pauser</text></g><!--entity Market--><g id="elem_Market"><rect fill="#D3D3D3" height="59.4434" rx="2.5" ry="2.5" style="stroke:#181818;stroke-width:0.5;" width="124" x="1827" y="2047"/><rect fill="#D3D3D3" height="10" style="stroke:#181818;stroke-width:0.5;" width="15" x="1931" y="2052"/><rect fill="#D3D3D3" height="2" style="stroke:#181818;stroke-width:0.5;" width="4" x="1929" y="2054"/><rect fill="#D3D3D3" height="2" style="stroke:#181818;stroke-width:0.5;" width="4" x="1929" y="2058"/><text fill="#000000" font-family="sans-serif" font-size="25" lengthAdjust="spacing" textLength="84" x="1842" y="2091.1699">Market</text></g><!--entity Collateral--><g id="elem_Collateral"><rect fill="#D3D3D3" height="59.4434" rx="2.5" ry="2.5" style="stroke:#181818;stroke-width:0.5;" width="154" x="1439" y="1584"/><rect fill="#D3D3D3" height="10" style="stroke:#181818;stroke-width:0.5;" width="15" x="1573" y="1589"/><rect fill="#D3D3D3" height="2" style="stroke:#181818;stroke-width:0.5;" width="4" x="1571" y="1591"/><rect fill="#D3D3D3" height="2" style="stroke:#181818;stroke-width:0.5;" width="4" x="1571" y="1595"/><text fill="#000000" font-family="sans-serif" font-size="25" lengthAdjust="spacing" textLength="114" x="1454" y="1628.1699">Collateral</text></g><!--entity MultiInvoker--><g id="elem_MultiInvoker"><rect fill="#D3D3D3" height="59.4434" rx="2.5" ry="2.5" style="stroke:#181818;stroke-width:0.5;" width="191" x="27.5" y="205"/><rect fill="#D3D3D3" height="10" style="stroke:#181818;stroke-width:0.5;" width="15" x="198.5" y="210"/><rect fill="#D3D3D3" height="2" style="stroke:#181818;stroke-width:0.5;" width="4" x="196.5" y="212"/><rect fill="#D3D3D3" height="2" style="stroke:#181818;stroke-width:0.5;" width="4" x="196.5" y="216"/><text fill="#000000" font-family="sans-serif" font-size="25" lengthAdjust="spacing" textLength="151" x="42.5" y="249.1699">MultiInvoker</text></g><!--entity ChainlinkOracle--><g id="elem_ChainlinkOracle"><rect fill="#D3D3D3" height="59.4434" rx="2.5" ry="2.5" style="stroke:#181818;stroke-width:0.5;" width="232" x="7" y="106"/><rect fill="#D3D3D3" height="10" style="stroke:#181818;stroke-width:0.5;" width="15" x="219" y="111"/><rect fill="#D3D3D3" height="2" style="stroke:#181818;stroke-width:0.5;" width="4" x="217" y="113"/><rect fill="#D3D3D3" height="2" style="stroke:#181818;stroke-width:0.5;" width="4" x="217" y="117"/><text fill="#000000" font-family="sans-serif" font-size="25" lengthAdjust="spacing" textLength="192" x="22" y="150.1699">ChainlinkOracle</text></g><!--entity Incentivizer--><g id="elem_Incentivizer"><rect fill="#D3D3D3" height="59.4434" rx="2.5" ry="2.5" style="stroke:#181818;stroke-width:0.5;" width="180" x="33" y="7"/><rect fill="#D3D3D3" height="10" style="stroke:#181818;stroke-width:0.5;" width="15" x="193" y="12"/><rect fill="#D3D3D3" height="2" style="stroke:#181818;stroke-width:0.5;" width="4" x="191" y="14"/><rect fill="#D3D3D3" height="2" style="stroke:#181818;stroke-width:0.5;" width="4" x="191" y="18"/><text fill="#000000" font-family="sans-serif" font-size="25" lengthAdjust="spacing" textLength="140" x="48" y="51.1699">Incentivizer</text></g><!--entity Controller--><g id="elem_Controller"><rect fill="#D3D3D3" height="59.4434" rx="2.5" ry="2.5" style="stroke:#181818;stroke-width:0.5;" width="160" x="742.5" y="535"/><rect fill="#D3D3D3" height="10" style="stroke:#181818;stroke-width:0.5;" width="15" x="882.5" y="540"/><rect fill="#D3D3D3" height="2" style="stroke:#181818;stroke-width:0.5;" width="4" x="880.5" y="542"/><rect fill="#D3D3D3" height="2" style="stroke:#181818;stroke-width:0.5;" width="4" x="880.5" y="546"/><text fill="#000000" font-family="sans-serif" font-size="25" lengthAdjust="spacing" textLength="120" x="757.5" y="579.1699">Controller</text></g><!--entity ProductProvider--><g id="elem_ProductProvider"><rect fill="#D3D3D3" height="59.4434" rx="2.5" ry="2.5" style="stroke:#181818;stroke-width:0.5;" width="232" x="7" y="442"/><rect fill="#D3D3D3" height="10" style="stroke:#181818;stroke-width:0.5;" width="15" x="219" y="447"/><rect fill="#D3D3D3" height="2" style="stroke:#181818;stroke-width:0.5;" width="4" x="217" y="449"/><rect fill="#D3D3D3" height="2" style="stroke:#181818;stroke-width:0.5;" width="4" x="217" y="453"/><text fill="#000000" font-family="sans-serif" font-size="25" lengthAdjust="spacing" textLength="192" x="22" y="486.1699">ProductProvider</text></g><!--entity deposit--><g id="elem_deposit"><rect fill="#F1F1F1" height="52.9766" rx="2.5" ry="2.5" style="stroke:#181818;stroke-width:0.5;" width="103" x="771" y="1450.23"/><text fill="#000000" font-family="sans-serif" font-size="14" font-style="italic" lengthAdjust="spacing" textLength="83" x="781" y="1473.7652">&#171;depositTo&#187;</text><text fill="#000000" font-family="sans-serif" font-size="14" lengthAdjust="spacing" textLength="51" x="797" y="1490.2534">deposit</text></g><!--entity withdrawFrom--><g id="elem_withdrawFrom"><rect fill="#F1F1F1" height="52.9766" rx="2.5" ry="2.5" style="stroke:#181818;stroke-width:0.5;" width="133" x="1128.5" y="1587.23"/><text fill="#000000" font-family="sans-serif" font-size="14" font-style="italic" lengthAdjust="spacing" textLength="113" x="1138.5" y="1610.7652">&#171;withdrawFrom&#187;</text><text fill="#000000" font-family="sans-serif" font-size="14" lengthAdjust="spacing" textLength="99" x="1145.5" y="1627.2534">withdrawFrom</text></g><!--entity withdrawTo--><g id="elem_withdrawTo"><rect fill="#F1F1F1" height="52.9766" rx="2.5" ry="2.5" style="stroke:#181818;stroke-width:0.5;" width="115" x="765" y="1572.23"/><text fill="#000000" font-family="sans-serif" font-size="14" font-style="italic" lengthAdjust="spacing" textLength="95" x="775" y="1595.7652">&#171;withdrawTo&#187;</text><text fill="#000000" font-family="sans-serif" font-size="14" lengthAdjust="spacing" textLength="81" x="782" y="1612.2534">withdrawTo</text></g><!--entity liquidate--><g id="elem_liquidate"><rect fill="#F1F1F1" height="52.9766" rx="2.5" ry="2.5" style="stroke:#181818;stroke-width:0.5;" width="94" x="1148" y="1331.23"/><text fill="#000000" font-family="sans-serif" font-size="14" font-style="italic" lengthAdjust="spacing" textLength="74" x="1158" y="1354.7652">&#171;liquidate&#187;</text><text fill="#000000" font-family="sans-serif" font-size="14" lengthAdjust="spacing" textLength="60" x="1165" y="1371.2534">liquidate</text></g><!--entity settleAccount--><g id="elem_settleAccount"><rect fill="#F1F1F1" height="52.9766" rx="2.5" ry="2.5" style="stroke:#181818;stroke-width:0.5;" width="127" x="1131.5" y="1173.23"/><text fill="#000000" font-family="sans-serif" font-size="14" font-style="italic" lengthAdjust="spacing" textLength="107" x="1141.5" y="1196.7652">&#171;settleAccount&#187;</text><text fill="#000000" font-family="sans-serif" font-size="14" lengthAdjust="spacing" textLength="98" x="1146" y="1213.2534">Settle Account</text></g><!--entity settleProduct--><g id="elem_settleProduct"><rect fill="#F1F1F1" height="52.9766" rx="2.5" ry="2.5" style="stroke:#181818;stroke-width:0.5;" width="124" x="2017" y="1883.23"/><text fill="#000000" font-family="sans-serif" font-size="14" font-style="italic" lengthAdjust="spacing" textLength="104" x="2027" y="1906.7652">&#171;settleProduct&#187;</text><text fill="#000000" font-family="sans-serif" font-size="14" lengthAdjust="spacing" textLength="95" x="2031.5" y="1923.2534">Settle Product</text></g><!--entity resolveShortfall--><g id="elem_resolveShortfall"><rect fill="#F1F1F1" height="52.9766" rx="2.5" ry="2.5" style="stroke:#181818;stroke-width:0.5;" width="141" x="1124.5" y="1680.23"/><text fill="#000000" font-family="sans-serif" font-size="14" font-style="italic" lengthAdjust="spacing" textLength="121" x="1134.5" y="1703.7652">&#171;resolveShortfall&#187;</text><text fill="#000000" font-family="sans-serif" font-size="14" lengthAdjust="spacing" textLength="114" x="1138" y="1720.2534">Resolve Shortfall</text></g><!--entity claimFee--><g id="elem_claimFee"><rect fill="#F1F1F1" height="52.9766" rx="2.5" ry="2.5" style="stroke:#181818;stroke-width:0.5;" width="94" x="1148" y="1838.23"/><text fill="#000000" font-family="sans-serif" font-size="14" font-style="italic" lengthAdjust="spacing" textLength="74" x="1158" y="1861.7652">&#171;claimFee&#187;</text><text fill="#000000" font-family="sans-serif" font-size="14" lengthAdjust="spacing" textLength="74" x="1158" y="1878.2534">Claim Fees</text></g><!--entity openTake--><g id="elem_openTake"><rect fill="#F1F1F1" height="52.9766" rx="2.5" ry="2.5" style="stroke:#181818;stroke-width:0.5;" width="153" x="1633.5" y="2094.23"/><text fill="#000000" font-family="sans-serif" font-size="14" font-style="italic" lengthAdjust="spacing" textLength="82" x="1669" y="2117.7652">&#171;openTake&#187;</text><text fill="#000000" font-family="sans-serif" font-size="14" lengthAdjust="spacing" textLength="133" x="1643.5" y="2134.2534">Open Take Position</text></g><!--entity closeTake--><g id="elem_closeTake"><rect fill="#F1F1F1" height="52.9766" rx="2.5" ry="2.5" style="stroke:#181818;stroke-width:0.5;" width="154" x="1633" y="2187.23"/><text fill="#000000" font-family="sans-serif" font-size="14" font-style="italic" lengthAdjust="spacing" textLength="82" x="1669" y="2210.7652">&#171;closeTake&#187;</text><text fill="#000000" font-family="sans-serif" font-size="14" lengthAdjust="spacing" textLength="134" x="1643" y="2227.2534">Close Take Position</text></g><!--entity openMake--><g id="elem_openMake"><rect fill="#F1F1F1" height="52.9766" rx="2.5" ry="2.5" style="stroke:#181818;stroke-width:0.5;" width="156" x="744.5" y="1851.23"/><text fill="#000000" font-family="sans-serif" font-size="14" font-style="italic" lengthAdjust="spacing" textLength="85" x="780" y="1874.7652">&#171;openMake&#187;</text><text fill="#000000" font-family="sans-serif" font-size="14" lengthAdjust="spacing" textLength="136" x="754.5" y="1891.2534">Open Make Position</text></g><!--entity closeMake--><g id="elem_closeMake"><rect fill="#F1F1F1" height="52.9766" rx="2.5" ry="2.5" style="stroke:#181818;stroke-width:0.5;" width="157" x="744" y="1976.23"/><text fill="#000000" font-family="sans-serif" font-size="14" font-style="italic" lengthAdjust="spacing" textLength="85" x="780" y="1999.7652">&#171;closeMake&#187;</text><text fill="#000000" font-family="sans-serif" font-size="14" lengthAdjust="spacing" textLength="137" x="754" y="2016.2534">Close Make Position</text></g><!--entity settle--><g id="elem_settle"><rect fill="#F1F1F1" height="52.9766" rx="2.5" ry="2.5" style="stroke:#181818;stroke-width:0.5;" width="71" x="1674.5" y="2443.23"/><text fill="#000000" font-family="sans-serif" font-size="14" font-style="italic" lengthAdjust="spacing" textLength="51" x="1684.5" y="2466.7652">&#171;settle&#187;</text><text fill="#000000" font-family="sans-serif" font-size="14" lengthAdjust="spacing" textLength="38" x="1691" y="2483.2534">Settle</text></g><!--entity closeAll--><g id="elem_closeAll"><rect fill="#F1F1F1" height="52.9766" rx="2.5" ry="2.5" style="stroke:#181818;stroke-width:0.5;" width="146" x="1637" y="1756.23"/><text fill="#000000" font-family="sans-serif" font-size="14" font-style="italic" lengthAdjust="spacing" textLength="67" x="1676.5" y="1779.7652">&#171;closeAll&#187;</text><text fill="#000000" font-family="sans-serif" font-size="14" lengthAdjust="spacing" textLength="126" x="1647" y="1796.2534">Close All Positions</text></g><!--entity updateClosed--><g id="elem_updateClosed"><rect fill="#F1F1F1" height="52.9766" rx="2.5" ry="2.5" style="stroke:#181818;stroke-width:0.5;" width="161" x="1114.5" y="2356.23"/><text fill="#000000" font-family="sans-serif" font-size="14" font-style="italic" lengthAdjust="spacing" textLength="109" x="1140.5" y="2379.7652">&#171;updateClosed&#187;</text><text fill="#000000" font-family="sans-serif" font-size="14" lengthAdjust="spacing" textLength="141" x="1124.5" y="2396.2534">Close / Open Market</text></g><!--entity updateOracle--><g id="elem_updateOracle"><rect fill="#F1F1F1" height="52.9766" rx="2.5" ry="2.5" style="stroke:#181818;stroke-width:0.5;" width="168" x="1111" y="2263.23"/><text fill="#000000" font-family="sans-serif" font-size="14" font-style="italic" lengthAdjust="spacing" textLength="106" x="1142" y="2286.7652">&#171;updateOracle&#187;</text><text fill="#000000" font-family="sans-serif" font-size="14" lengthAdjust="spacing" textLength="148" x="1121" y="2303.2534">Update Market Oracle</text></g><!--entity createCoordinator--><g id="elem_createCoordinator"><rect fill="#F1F1F1" height="52.9766" rx="2.5" ry="2.5" style="stroke:#181818;stroke-width:0.5;" width="198" x="367.5" y="287.23"/><text fill="#000000" font-family="sans-serif" font-size="14" font-style="italic" lengthAdjust="spacing" textLength="140" x="396.5" y="310.7652">&#171;createCoordinator&#187;</text><text fill="#000000" font-family="sans-serif" font-size="14" lengthAdjust="spacing" textLength="178" x="377.5" y="327.2534">Add new Product Provider</text></g><!--entity updateCoordinator--><g id="elem_updateCoordinator"><rect fill="#F1F1F1" height="52.9766" rx="2.5" ry="2.5" style="stroke:#181818;stroke-width:0.5;" width="304" x="314.5" y="445.23"/><text fill="#000000" font-family="sans-serif" font-size="14" font-style="italic" lengthAdjust="spacing" textLength="247" x="343" y="468.7652">&#171;updateCoordinatorPendingOwner&#187;</text><text fill="#000000" font-family="sans-serif" font-size="14" lengthAdjust="spacing" textLength="284" x="324.5" y="485.2534">Update the owner of the Product Provider</text></g><!--entity updateTreasury--><g id="elem_updateTreasury"><rect fill="#F1F1F1" height="52.9766" rx="2.5" ry="2.5" style="stroke:#181818;stroke-width:0.5;" width="375" x="279" y="538.23"/><text fill="#000000" font-family="sans-serif" font-size="14" font-style="italic" lengthAdjust="spacing" textLength="206" x="363.5" y="561.7652">&#171;updateCoordinatorTreasury&#187;</text><text fill="#000000" font-family="sans-serif" font-size="14" lengthAdjust="spacing" textLength="355" x="289" y="578.2534">Update the treasury address of the Product Provider</text></g><!--entity pause--><g id="elem_pause"><rect fill="#F1F1F1" height="52.9766" rx="2.5" ry="2.5" style="stroke:#181818;stroke-width:0.5;" width="223" x="355" y="631.23"/><text fill="#000000" font-family="sans-serif" font-size="14" font-style="italic" lengthAdjust="spacing" textLength="111" x="411" y="654.7652">&#171;updatePaused&#187;</text><text fill="#000000" font-family="sans-serif" font-size="14" lengthAdjust="spacing" textLength="203" x="365" y="671.2534">Pause / Unpause the protocol</text></g><g id="elem_GMN88"><path d="M1073.5,1266.07 L1073.5,1291.3805 A0,0 0 0 0 1073.5,1291.3805 L1316.5,1291.3805 A0,0 0 0 0 1316.5,1291.3805 L1316.5,1276.07 L1306.5,1266.07 L1200,1266.07 L1196,1226.47 L1192,1266.07 L1073.5,1266.07 A0,0 0 0 0 1073.5,1266.07 " fill="#FFFFFF" style="stroke:#000000;stroke-width:0.5;"/><path d="M1306.5,1266.07 L1306.5,1276.07 L1316.5,1276.07 L1306.5,1266.07 " fill="#FFFFFF" style="stroke:#000000;stroke-width:0.5;"/><text fill="#000000" font-family="sans-serif" font-size="13" lengthAdjust="spacing" textLength="222" x="1079.5" y="1283.6384">Moves collateral within the product</text></g><g id="elem_GMN91"><path d="M1991,1802.41 L1991,1843.0311 A0,0 0 0 0 1991,1843.0311 L2076,1843.0311 L2080,1882.99 L2084,1843.0311 L2167,1843.0311 A0,0 0 0 0 2167,1843.0311 L2167,1812.41 L2157,1802.41 L1991,1802.41 A0,0 0 0 0 1991,1802.41 " fill="#FFFFFF" style="stroke:#000000;stroke-width:0.5;"/><path d="M2157,1802.41 L2157,1812.41 L2167,1812.41 L2157,1802.41 " fill="#FFFFFF" style="stroke:#000000;stroke-width:0.5;"/><text fill="#000000" font-family="sans-serif" font-size="13" lengthAdjust="spacing" textLength="118" x="1997" y="1819.9784">Removes collateral</text><text fill="#000000" font-family="sans-serif" font-size="13" lengthAdjust="spacing" textLength="155" x="1997" y="1835.2889">from the product as fees</text></g><g id="elem_GMN94"><path d="M399,222.07 L399,230.72 L218.68,234.72 L399,238.72 L399,247.3805 A0,0 0 0 0 399,247.3805 L534,247.3805 A0,0 0 0 0 534,247.3805 L534,232.07 L524,222.07 L399,222.07 A0,0 0 0 0 399,222.07 " fill="#FFFFFF" style="stroke:#000000;stroke-width:0.5;"/><path d="M524,222.07 L524,232.07 L534,232.07 L524,222.07 " fill="#FFFFFF" style="stroke:#000000;stroke-width:0.5;"/><text fill="#000000" font-family="sans-serif" font-size="13" lengthAdjust="spacing" textLength="114" x="405" y="239.6384">Allows batch calls</text></g><g id="elem_GMN97"><path d="M1994.5,2064.07 L1994.5,2072.72 L1951.48,2076.72 L1994.5,2080.72 L1994.5,2089.3805 A0,0 0 0 0 1994.5,2089.3805 L2163.5,2089.3805 A0,0 0 0 0 2163.5,2089.3805 L2163.5,2074.07 L2153.5,2064.07 L1994.5,2064.07 A0,0 0 0 0 1994.5,2064.07 " fill="#FFFFFF" style="stroke:#000000;stroke-width:0.5;"/><path d="M2153.5,2064.07 L2153.5,2074.07 L2163.5,2074.07 L2153.5,2064.07 " fill="#FFFFFF" style="stroke:#000000;stroke-width:0.5;"/><text fill="#000000" font-family="sans-serif" font-size="13" lengthAdjust="spacing" textLength="148" x="2000.5" y="2081.6384">In V1 known as Product</text></g><g id="elem_GMN100"><path d="M54,1673.07 L54,1698.3805 A0,0 0 0 0 54,1698.3805 L192,1698.3805 A0,0 0 0 0 192,1698.3805 L192,1691.07 L441.79,1685.72 L192,1683.07 L192,1683.07 L182,1673.07 L54,1673.07 A0,0 0 0 0 54,1673.07 " fill="#FFFFFF" style="stroke:#000000;stroke-width:0.5;"/><path d="M182,1673.07 L182,1683.07 L192,1683.07 L182,1673.07 " fill="#FFFFFF" style="stroke:#000000;stroke-width:0.5;"/><text fill="#000000" font-family="sans-serif" font-size="13" lengthAdjust="spacing" textLength="117" x="60" y="1690.6384">Liquidity Providers</text></g><g id="elem_GMN103"><path d="M1161,2155.07 L1161,2180.3805 A0,0 0 0 0 1161,2180.3805 L1229,2180.3805 A0,0 0 0 0 1229,2180.3805 L1229,2173.07 L1492.67,2167.72 L1229,2165.07 L1229,2165.07 L1219,2155.07 L1161,2155.07 A0,0 0 0 0 1161,2155.07 " fill="#FFFFFF" style="stroke:#000000;stroke-width:0.5;"/><path d="M1219,2155.07 L1219,2165.07 L1229,2165.07 L1219,2155.07 " fill="#FFFFFF" style="stroke:#000000;stroke-width:0.5;"/><text fill="#000000" font-family="sans-serif" font-size="13" lengthAdjust="spacing" textLength="47" x="1167" y="2172.6384">Traders</text></g><g id="elem_GMN106"><path d="M991,1773.07 L991,1798.3805 A0,0 0 0 0 991,1798.3805 L1399,1798.3805 A0,0 0 0 0 1399,1798.3805 L1399,1783.07 L1389,1773.07 L1200,1773.07 L1196,1733.47 L1192,1773.07 L991,1773.07 A0,0 0 0 0 991,1773.07 " fill="#FFFFFF" style="stroke:#000000;stroke-width:0.5;"/><path d="M1389,1773.07 L1389,1783.07 L1399,1783.07 L1389,1773.07 " fill="#FFFFFF" style="stroke:#000000;stroke-width:0.5;"/><text fill="#000000" font-family="sans-serif" font-size="13" lengthAdjust="spacing" textLength="387" x="997" y="1790.6384">Market Operator or Insurer can re-capitalize insolvent market</text></g><g id="elem_GMN109"><path d="M365.5,380.07 L365.5,405.3805 A0,0 0 0 0 365.5,405.3805 L567.5,405.3805 A0,0 0 0 0 567.5,405.3805 L567.5,390.07 L557.5,380.07 L471,380.07 L467,340.47 L463,380.07 L365.5,380.07 A0,0 0 0 0 365.5,380.07 " fill="#FFFFFF" style="stroke:#000000;stroke-width:0.5;"/><path d="M557.5,380.07 L557.5,390.07 L567.5,390.07 L557.5,380.07 " fill="#FFFFFF" style="stroke:#000000;stroke-width:0.5;"/><text fill="#000000" font-family="sans-serif" font-size="13" lengthAdjust="spacing" textLength="181" x="371.5" y="397.6384">This can be called by anyone</text></g><!--link deposit to Collateral--><g id="link_deposit_Collateral"><path d="M874.33,1476.72 C1032.94,1476.72 1501,1476.72 1501,1476.72 C1501,1476.72 1501,1577.66 1501,1577.66 " fill="none" id="deposit-to-Collateral" style="stroke:#181818;stroke-width:1.0;"/><polygon fill="#181818" points="1501,1582.66,1505,1573.66,1501,1577.66,1497,1573.66,1501,1582.66" style="stroke:#181818;stroke-width:1.0;"/></g><!--link withdrawTo to Collateral--><g id="link_withdrawTo_Collateral"><path d="M880.25,1578.12 C1038.94,1578.12 1470,1578.12 1470,1578.12 C1470,1578.12 1470,1578.67 1470,1578.67 " fill="none" id="withdrawTo-to-Collateral" style="stroke:#181818;stroke-width:1.0;"/><polygon fill="#181818" points="1470,1582.68,1474,1573.68,1470,1577.68,1466,1573.68,1470,1582.68" style="stroke:#181818;stroke-width:1.0;"/></g><!--link withdrawFrom to Collateral--><g id="link_withdrawFrom_Collateral"><path d="M1261.9,1613.72 C1261.9,1613.72 1432.74,1613.72 1432.74,1613.72 " fill="none" id="withdrawFrom-to-Collateral" style="stroke:#181818;stroke-width:1.0;"/><polygon fill="#181818" points="1437.74,1613.72,1428.74,1609.72,1432.74,1613.72,1428.74,1617.72,1437.74,1613.72" style="stroke:#181818;stroke-width:1.0;"/></g><!--link withdrawTo to withdrawFrom--><g id="link_withdrawTo_withdrawFrom"><path d="M880.29,1606.22 C880.29,1606.22 1122.25,1606.22 1122.25,1606.22 " fill="none" id="withdrawTo-to-withdrawFrom" style="stroke:#181818;stroke-width:1.0;"/><polygon fill="#181818" points="1127.25,1606.22,1118.25,1602.22,1122.25,1606.22,1118.25,1610.22,1127.25,1606.22" style="stroke:#181818;stroke-width:1.0;"/></g><!--link liquidate to Collateral--><g id="link_liquidate_Collateral"><path d="M1242.21,1357.72 C1334.96,1357.72 1532,1357.72 1532,1357.72 C1532,1357.72 1532,1577.6 1532,1577.6 " fill="none" id="liquidate-to-Collateral" style="stroke:#181818;stroke-width:1.0;"/><polygon fill="#181818" points="1532,1582.6,1536,1573.6,1532,1577.6,1528,1573.6,1532,1582.6" style="stroke:#181818;stroke-width:1.0;"/></g><!--link settleAccount to Collateral--><g id="link_settleAccount_Collateral"><path d="M1258.68,1208.55 C1364.01,1208.55 1563,1208.55 1563,1208.55 C1563,1208.55 1563,1577.6 1563,1577.6 " fill="none" id="settleAccount-to-Collateral" style="stroke:#181818;stroke-width:1.0;"/><polygon fill="#181818" points="1563,1582.6,1567,1573.6,1563,1577.6,1559,1573.6,1563,1582.6" style="stroke:#181818;stroke-width:1.0;"/></g><!--link settleProduct to Collateral--><g id="link_settleProduct_Collateral"><path d="M2016.67,1887.22 C1878.38,1887.22 1558,1887.22 1558,1887.22 C1558,1887.22 1558,1649.77 1558,1649.77 " fill="none" id="settleProduct-to-Collateral" style="stroke:#181818;stroke-width:1.0;"/><polygon fill="#181818" points="1558,1644.77,1554,1653.77,1558,1649.77,1562,1653.77,1558,1644.77" style="stroke:#181818;stroke-width:1.0;"/></g><!--link claimFee to Collateral--><g id="link_claimFee_Collateral"><path d="M1242.35,1863.13 C1322.43,1863.13 1476,1863.13 1476,1863.13 C1476,1863.13 1476,1649.81 1476,1649.81 " fill="none" id="claimFee-to-Collateral" style="stroke:#181818;stroke-width:1.0;"/><polygon fill="#181818" points="1476,1644.81,1472,1653.81,1476,1649.81,1480,1653.81,1476,1644.81" style="stroke:#181818;stroke-width:1.0;"/></g><!--link resolveShortfall to Collateral--><g id="link_resolveShortfall_Collateral"><path d="M1265.83,1706.72 C1343.72,1706.72 1458,1706.72 1458,1706.72 C1458,1706.72 1458,1649.92 1458,1649.92 " fill="none" id="resolveShortfall-to-Collateral" style="stroke:#181818;stroke-width:1.0;"/><polygon fill="#181818" points="1458,1644.92,1454,1653.92,1458,1649.92,1462,1653.92,1458,1644.92" style="stroke:#181818;stroke-width:1.0;"/></g><!--link Makers to deposit--><g id="link_Makers_deposit"><path d="M455,1647.39 C455,1587.05 455,1476.72 455,1476.72 C455,1476.72 764.63,1476.72 764.63,1476.72 " fill="none" id="Makers-to-deposit" style="stroke:#181818;stroke-width:1.0;"/><polygon fill="#181818" points="769.63,1476.72,760.63,1472.72,764.63,1476.72,760.63,1480.72,769.63,1476.72" style="stroke:#181818;stroke-width:1.0;"/></g><!--link Makers to withdrawTo--><g id="link_Makers_withdrawTo"><path d="M467,1647.06 C467,1623.82 467,1598.72 467,1598.72 C467,1598.72 758.59,1598.72 758.59,1598.72 " fill="none" id="Makers-to-withdrawTo" style="stroke:#181818;stroke-width:1.0;"/><polygon fill="#181818" points="763.59,1598.72,754.59,1594.72,758.59,1598.72,754.59,1602.72,763.59,1598.72" style="stroke:#181818;stroke-width:1.0;"/></g><!--link Makers to withdrawFrom--><g id="link_Makers_withdrawFrom"><path d="M479,1647.2 C479,1638.97 479,1632.71 479,1632.71 C479,1632.71 1122.28,1632.71 1122.28,1632.71 " fill="none" id="Makers-to-withdrawFrom" style="stroke:#181818;stroke-width:1.0;"/><polygon fill="#181818" points="1127.28,1632.71,1118.28,1628.71,1122.28,1632.71,1118.28,1636.71,1127.28,1632.71" style="stroke:#181818;stroke-width:1.0;"/></g><!--link Liquidators to liquidate--><g id="link_Liquidators_liquidate"><path d="M861.31,1357.72 C861.31,1357.72 1141.54,1357.72 1141.54,1357.72 " fill="none" id="Liquidators-to-liquidate" style="stroke:#181818;stroke-width:1.0;"/><polygon fill="#181818" points="1146.54,1357.72,1137.54,1353.72,1141.54,1357.72,1137.54,1361.72,1146.54,1357.72" style="stroke:#181818;stroke-width:1.0;"/></g><!--link Market to settleAccount--><g id="link_Market_settleAccount"><path d="M1921,2046.74 C1921,1892 1921,1190.89 1921,1190.89 C1921,1190.89 1264.79,1190.89 1264.79,1190.89 " fill="none" id="Market-to-settleAccount" style="stroke:#181818;stroke-width:1.0;"/><polygon fill="#181818" points="1259.79,1190.89,1268.79,1194.89,1264.79,1190.89,1268.79,1186.89,1259.79,1190.89" style="stroke:#181818;stroke-width:1.0;"/></g><!--link Market to settleProduct--><g id="link_Market_settleProduct"><path d="M1951.28,2055.53 C2007.01,2055.53 2080,2055.53 2080,2055.53 C2080,2055.53 2080,1942.47 2080,1942.47 " fill="none" id="Market-to-settleProduct" style="stroke:#181818;stroke-width:1.0;"/><polygon fill="#181818" points="2080,1937.47,2076,1946.47,2080,1942.47,2084,1946.47,2080,1937.47" style="stroke:#181818;stroke-width:1.0;"/></g><!--link MarketOperator to resolveShortfall--><g id="link_MarketOperator_resolveShortfall"><path d="M879.45,2257.36 C921.69,2257.36 972,2257.36 972,2257.36 C972,2257.36 972,1728.59 972,1728.59 C972,1728.59 1118.13,1728.59 1118.13,1728.59 " fill="none" id="MarketOperator-to-resolveShortfall" style="stroke:#181818;stroke-width:1.0;"/><polygon fill="#181818" points="1123.13,1728.59,1114.13,1724.59,1118.13,1728.59,1114.13,1732.59,1123.13,1728.59" style="stroke:#181818;stroke-width:1.0;"/></g><!--link openMake to Market--><g id="link_openMake_Market"><path d="M900.83,1897.71 C1142.3,1897.71 1859,1897.71 1859,1897.71 C1859,1897.71 1859,2040.76 1859,2040.76 " fill="none" id="openMake-to-Market" style="stroke:#181818;stroke-width:1.0;"/><polygon fill="#181818" points="1859,2045.76,1863,2036.76,1859,2040.76,1855,2036.76,1859,2045.76" style="stroke:#181818;stroke-width:1.0;"/></g><!--link closeMake to Market--><g id="link_closeMake_Market"><path d="M891,2029.57 C891,2045.55 891,2062.74 891,2062.74 C891,2062.74 1820.57,2062.74 1820.57,2062.74 " fill="none" id="closeMake-to-Market" style="stroke:#181818;stroke-width:1.0;"/><polygon fill="#181818" points="1825.57,2062.74,1816.57,2058.74,1820.57,2062.74,1816.57,2066.74,1825.57,2062.74" style="stroke:#181818;stroke-width:1.0;"/></g><!--link openTake to Market--><g id="link_openTake_Market"><path d="M1786.95,2100.34 C1786.95,2100.34 1820.68,2100.34 1820.68,2100.34 " fill="none" id="openTake-to-Market" style="stroke:#181818;stroke-width:1.0;"/><polygon fill="#181818" points="1825.68,2100.34,1816.68,2096.34,1820.68,2100.34,1816.68,2104.34,1825.68,2100.34" style="stroke:#181818;stroke-width:1.0;"/></g><!--link closeTake to Market--><g id="link_closeTake_Market"><path d="M1787.12,2213.72 C1823.48,2213.72 1859,2213.72 1859,2213.72 C1859,2213.72 1859,2112.79 1859,2112.79 " fill="none" id="closeTake-to-Market" style="stroke:#181818;stroke-width:1.0;"/><polygon fill="#181818" points="1859,2107.79,1855,2116.79,1859,2112.79,1863,2116.79,1859,2107.79" style="stroke:#181818;stroke-width:1.0;"/></g><!--link settle to Market--><g id="link_settle_Market"><path d="M1745.79,2469.72 C1805.99,2469.72 1921,2469.72 1921,2469.72 C1921,2469.72 1921,2112.91 1921,2112.91 " fill="none" id="settle-to-Market" style="stroke:#181818;stroke-width:1.0;"/><polygon fill="#181818" points="1921,2107.91,1917,2116.91,1921,2112.91,1925,2116.91,1921,2107.91" style="stroke:#181818;stroke-width:1.0;"/></g><!--link closeAll to Market--><g id="link_closeAll_Market"><path d="M1783.47,1779.32 C1833.24,1779.32 1890,1779.32 1890,1779.32 C1890,1779.32 1890,2040.57 1890,2040.57 " fill="none" id="closeAll-to-Market" style="stroke:#181818;stroke-width:1.0;"/><polygon fill="#181818" points="1890,2045.57,1894,2036.57,1890,2040.57,1886,2036.57,1890,2045.57" style="stroke:#181818;stroke-width:1.0;"/></g><!--link updateClosed to Market--><g id="link_updateClosed_Market"><path d="M1275.74,2382.72 C1458.88,2382.72 1890,2382.72 1890,2382.72 C1890,2382.72 1890,2112.9 1890,2112.9 " fill="none" id="updateClosed-to-Market" style="stroke:#181818;stroke-width:1.0;"/><polygon fill="#181818" points="1890,2107.9,1886,2116.9,1890,2112.9,1894,2116.9,1890,2107.9" style="stroke:#181818;stroke-width:1.0;"/></g><!--link updateOracle to Market--><g id="link_updateOracle_Market"><path d="M1261,2262.97 C1261,2206.13 1261,2078.49 1261,2078.49 C1261,2078.49 1820.78,2078.49 1820.78,2078.49 " fill="none" id="updateOracle-to-Market" style="stroke:#181818;stroke-width:1.0;"/><polygon fill="#181818" points="1825.78,2078.49,1816.78,2074.49,1820.78,2078.49,1816.78,2082.49,1825.78,2078.49" style="stroke:#181818;stroke-width:1.0;"/></g><!--link Makers to openMake--><g id="link_Makers_openMake"><path d="M491.35,1702.1 C561.33,1702.1 755,1702.1 755,1702.1 C755,1702.1 755,1845.05 755,1845.05 " fill="none" id="Makers-to-openMake" style="stroke:#181818;stroke-width:1.0;"/><polygon fill="#181818" points="755,1850.05,759,1841.05,755,1845.05,751,1841.05,755,1850.05" style="stroke:#181818;stroke-width:1.0;"/></g><!--link Makers to closeMake--><g id="link_Makers_closeMake"><path d="M467,1724.28 C467,1808.76 467,2002.72 467,2002.72 C467,2002.72 737.6,2002.72 737.6,2002.72 " fill="none" id="Makers-to-closeMake" style="stroke:#181818;stroke-width:1.0;"/><polygon fill="#181818" points="742.6,2002.72,733.6,1998.72,737.6,2002.72,733.6,2006.72,742.6,2002.72" style="stroke:#181818;stroke-width:1.0;"/></g><!--link Takers to openTake--><g id="link_Takers_openTake"><path d="M1539.4,2138.34 C1539.4,2138.34 1627.28,2138.34 1627.28,2138.34 " fill="none" id="Takers-to-openTake" style="stroke:#181818;stroke-width:1.0;"/><polygon fill="#181818" points="1632.28,2138.34,1623.28,2134.34,1627.28,2138.34,1623.28,2142.34,1632.28,2138.34" style="stroke:#181818;stroke-width:1.0;"/></g><!--link Takers to closeTake--><g id="link_Takers_closeTake"><path d="M1539.4,2196.6 C1539.4,2196.6 1626.84,2196.6 1626.84,2196.6 " fill="none" id="Takers-to-closeTake" style="stroke:#181818;stroke-width:1.0;"/><polygon fill="#181818" points="1631.84,2196.6,1622.84,2192.6,1626.84,2196.6,1622.84,2200.6,1631.84,2196.6" style="stroke:#181818;stroke-width:1.0;"/></g><!--link Collateral to closeAll--><g id="link_Collateral_closeAll"><path d="M1576,1643.9 C1576,1687.95 1576,1764.65 1576,1764.65 C1576,1764.65 1630.73,1764.65 1630.73,1764.65 " fill="none" id="Collateral-to-closeAll" style="stroke:#181818;stroke-width:1.0;"/><polygon fill="#181818" points="1635.73,1764.65,1626.73,1760.65,1630.73,1764.65,1626.73,1768.65,1635.73,1764.65" style="stroke:#181818;stroke-width:1.0;"/></g><!--link MarketOperator to updateClosed--><g id="link_MarketOperator_updateClosed"><path d="M823,2328.35 C823,2353.91 823,2382.72 823,2382.72 C823,2382.72 1108.28,2382.72 1108.28,2382.72 " fill="none" id="MarketOperator-to-updateClosed" style="stroke:#181818;stroke-width:1.0;"/><polygon fill="#181818" points="1113.28,2382.72,1104.28,2378.72,1108.28,2382.72,1104.28,2386.72,1113.28,2382.72" style="stroke:#181818;stroke-width:1.0;"/></g><!--link MarketOperator to updateOracle--><g id="link_MarketOperator_updateOracle"><path d="M879.48,2289.72 C879.48,2289.72 1104.72,2289.72 1104.72,2289.72 " fill="none" id="MarketOperator-to-updateOracle" style="stroke:#181818;stroke-width:1.0;"/><polygon fill="#181818" points="1109.72,2289.72,1100.72,2285.72,1104.72,2289.72,1100.72,2293.72,1109.72,2289.72" style="stroke:#181818;stroke-width:1.0;"/></g><!--link createCoordinator to Controller--><g id="link_createCoordinator_Controller"><path d="M565.76,313.72 C679.39,313.72 850,313.72 850,313.72 C850,313.72 850,528.94 850,528.94 " fill="none" id="createCoordinator-to-Controller" style="stroke:#181818;stroke-width:1.0;"/><polygon fill="#181818" points="850,533.94,854,524.94,850,528.94,846,524.94,850,533.94" style="stroke:#181818;stroke-width:1.0;"/></g><!--link updateCoordinator to Controller--><g id="link_updateCoordinator_Controller"><path d="M618.71,471.72 C705.05,471.72 796,471.72 796,471.72 C796,471.72 796,528.53 796,528.53 " fill="none" id="updateCoordinator-to-Controller" style="stroke:#181818;stroke-width:1.0;"/><polygon fill="#181818" points="796,533.53,800,524.53,796,528.53,792,524.53,796,533.53" style="stroke:#181818;stroke-width:1.0;"/></g><!--link updateTreasury to Controller--><g id="link_updateTreasury_Controller"><path d="M654.4,564.72 C654.4,564.72 736.22,564.72 736.22,564.72 " fill="none" id="updateTreasury-to-Controller" style="stroke:#181818;stroke-width:1.0;"/><polygon fill="#181818" points="741.22,564.72,732.22,560.72,736.22,564.72,732.22,568.72,741.22,564.72" style="stroke:#181818;stroke-width:1.0;"/></g><!--link UPDATE_PROTOCOL_PARAMS to Controller--><g id="link_UPDATE_PROTOCOL_PARAMS_Controller"><path d="M850,726.3577 C850,726.1223 850,725.8858 850,725.6483 C850,725.1732 850,724.6938 850,724.2104 C850,722.2767 850,720.2777 850,718.2226 C850,714.1123 850,709.7779 850,705.294 C850,696.3263 850,686.7606 850,677.195 C850,638.9325 850,600.67 850,600.67 " fill="none" id="UPDATE_PROTOCOL_PARAMS-to-Controller" style="stroke:#181818;stroke-width:1.0;"/><polygon fill="#181818" points="850,595.67,846,604.67,850,600.67,854,604.67,850,595.67" style="stroke:#181818;stroke-width:1.0;"/></g><!--link pause to Controller--><g id="link_pause_Controller"><path d="M578.05,657.72 C673.64,657.72 796,657.72 796,657.72 C796,657.72 796,600.92 796,600.92 " fill="none" id="pause-to-Controller" style="stroke:#181818;stroke-width:1.0;"/><polygon fill="#181818" points="796,595.92,792,604.92,796,600.92,800,604.92,796,595.92" style="stroke:#181818;stroke-width:1.0;"/></g><!--link ProductProvider to createCoordinator--><g id="link_ProductProvider_createCoordinator"><path d="M229,441.63 C229,395.79 229,313.72 229,313.72 C229,313.72 361.15,313.72 361.15,313.72 " fill="none" id="ProductProvider-to-createCoordinator" style="stroke:#181818;stroke-width:1.0;"/><polygon fill="#181818" points="366.15,313.72,357.15,309.72,361.15,313.72,357.15,317.72,366.15,313.72" style="stroke:#181818;stroke-width:1.0;"/><text fill="#000000" font-family="sans-serif" font-size="13" lengthAdjust="spacing" textLength="5" x="225.12" y="327.2884">?</text></g><!--link ProductProvider to updateCoordinator--><g id="link_ProductProvider_updateCoordinator"><path d="M239.29,462.89 C239.29,462.89 308.09,462.89 308.09,462.89 " fill="none" id="ProductProvider-to-updateCoordinator" style="stroke:#181818;stroke-width:1.0;"/><polygon fill="#181818" points="313.09,462.89,304.09,458.89,308.09,462.89,304.09,466.89,313.09,462.89" style="stroke:#181818;stroke-width:1.0;"/></g><!--link ProductProvider to updateTreasury--><g id="link_ProductProvider_updateTreasury"><path d="M239.06,480.55 C270.98,480.55 297,480.55 297,480.55 C297,480.55 297,532.09 297,532.09 " fill="none" id="ProductProvider-to-updateTreasury" style="stroke:#181818;stroke-width:1.0;"/><polygon fill="#181818" points="297,537.09,301,528.09,297,532.09,293,528.09,297,537.09" style="stroke:#181818;stroke-width:1.0;"/></g><!--link Admin to UPDATE_PROTOCOL_PARAMS--><g id="link_Admin_UPDATE_PROTOCOL_PARAMS"><path d="M145.8,753.72 C164.3825,753.72 192.7744,753.72 225.1344,753.72 C241.3144,753.72 258.4864,753.72 275.9203,753.72 C280.2788,753.72 284.6536,753.72 289.0334,753.72 C291.2233,753.72 293.4145,753.72 295.6054,753.72 " fill="none" id="Admin-to-UPDATE_PROTOCOL_PARAMS" style="stroke:#181818;stroke-width:1.0;"/><polygon fill="#181818" points="295.6054,753.72,286.6054,749.72,290.6054,753.72,286.6054,757.72,295.6054,753.72" style="stroke:#181818;stroke-width:1.0;"/></g><!--link Pauser to pause--><g id="link_Pauser_pause"><path d="M146.34,657.72 C146.34,657.72 348.51,657.72 348.51,657.72 " fill="none" id="Pauser-to-pause" style="stroke:#181818;stroke-width:1.0;"/><polygon fill="#181818" points="353.51,657.72,344.51,653.72,348.51,657.72,344.51,661.72,353.51,657.72" style="stroke:#181818;stroke-width:1.0;"/></g><text fill="#888888" font-family="sans-serif" font-size="10" lengthAdjust="spacing" textLength="274" x="943" y="2510.8745">Perennial Protocol Architecture | author: @kamilchmielu</text><!--SRC=[lLXBR-Cs4BxhLn2v-1HuMxGN8qZhJHiWG5mRYTDJWGKjqJ5XYLGfAcxQxd_VuLCaHJajzc4iDkGtCnyvGt8uL4ts4acE17q-I5HHGKf9EIkAxaXPYmLkK4qPaQyjGLp80my4Z5Ua8otwuLq02ioE5enK9K7_50X-xxceYBZXDHTeL-FoQ51eF0lUiyf8JWSgYPRSSYP3xOy1RScRbZF2fELMke_qRuA-_p7BMYildmL-1PQ8fgwDtzs8w5sisW8ZVlv_lkXHTtLF5DLyXfQbvA93itc1LGlTqpzxMc45McI5ZyHtjc7dOeN5aKYqRebG5XS8TyXW3hAQowgXpBOtkE-8q8FFF_jNpETe-dV31O7_c1GmT3UbfLa-zwSYM0nRm4GXH23yDPOGbJhIwsj9xzWBXx2YIFs0AOFTVbp3t6iIoUvO2N_e2-o9n4YvglPF36y4h_fImfyNMcdPLuwz2pcwxPdTobyzzlFP467egzo1sJD4hY8jxwX4LrUsjUNNru7yHEMX4lXqAtW3Ic4tgxVbWLR2LTlJGq35joEDYqSY9VnTbYKSIgcFJASXYu1brCzQsnKDh2tYhMq_jduW7QzV27eyGFhSuxhM1CAW7WIE58ffRcfC6tHBIAVjIzM57jYv9kZ3WfX342t61IG6fhC8sgYrWBsXEJZ06hswSirqJDwHZ66fS6lfsx6f7dAL7N8r3BcQ67AL7t8L33asDSiKB8zVbzmGIuYv6w4RXbZgfN3DdE4SMTzKdBLXtweTfwKL68VTcE19Iv3Bu3h910mswpW6qpMhEYIPU6MNLOKOERczYLowCGu9eYR2uOwYJ5qCohCKoyvG7k2oFp58MtolErb-wsZ4Fy8sX47hUQtO9iUICAkk5wy8LnKSW-u_3Bjr9fandImp7ap5t510AJdS-t0rmhLE88MPNV2q-MMv_VN3vc6zNT-ixpzibW_BrQEzxiUp7_8V514s0LideXXvhM6w3e9PvhcZA-SCUwJd-4DmSWGNtxkchKa3-bWT1_IUuDAUEqDczGpkXuZGoJ7qROlSTJkUVNGRE-eGF3TxiuINtf4zPCIkhQcC9w_LJBOSOPFqK3tHfc_KVQfsC1IsCZojAygivC7SFJbuajnTL2hSCEc0ztwGX3EEuKbUwfSzntqNIqF-iUZDmAYIKfVEPX_7iSbi-GYTPiT_ZRne1OUYlUaGLBYgu-zXlvfQl25Yk9AdHDFRITV8cHrg1PvITu7cOvXTD0gNmnEy4rHBfQ_MxZBDPU28f3B9_HkKv8oHypNX5oqBPxcik7TbwQnmrU7bvNLOeWV5teH4buldhKBLOYWD4wEu-iiAtKvAXBxmIl1HGPV8PpS0Tkgb_KPmpDDFcziuXT3WRGxLJWUlIItqGIXiuQ70E01ZYVE-Y9-MMYDr5HRSsWTk-4fFMTYNsL341Q2lGbF55BH5NQgsjB6sM5ICZN1ROWNui2xMXpVMnFiLWeDZnJPMLTqGyvuLmJRm0l0b5_3GfscvyKsVFlyY3NmOLuDcXphTObpEPHLyuPL89mgdHCjamGIC3aTkxkbZMWSizMU1ViegZlmwe-MSA_J74ot8-rNOIq5fQ9- -II97w3SkIOVE_xvS8jTVxNPSIaYxK997IME1Llm5vZ8K03eDGTJirMVoXwQGl1tiRVGNw84q2SCVRAyoV4W0DoVKC9tXCHyfWIci3nVgBSTF7TfXMHvGgRPIggxFp0AgKFJxT-Z8u6sZYErCZ7AjFeHgNNLO5_QZ79Ml_lNHnOfRgxWLU10EmKgpv08bN-uG_BjZiDjK5OKP65oMkAKIr-gx8sNQ799pOn9LGf_P_ji3xJJJZkWeG0BSmPEAlN86stFFWK0WA8G8OnHMovVFIr6gZwsbXAcWVn7kvK7H_Np43QtBGqD9tNy2]--></g></svg>